<?xml version="1.0" encoding="UTF-8"?>
<svg version="1.1" xmlns="http://www.w3.org/2000/svg" width="469" height="162">
<path d="M0 0 C0.81662109 -0.020625 1.63324219 -0.04125 2.47460938 -0.0625 C11.03139005 -0.11704522 19.65990735 2.54037519 26.0625 8.4375 C26.866875 9.3346875 26.866875 9.3346875 27.6875 10.25 C28.6775 7.61 29.6675 4.97 30.6875 2.25 C49.1675 1.92 67.6475 1.59 86.6875 1.25 C84.6875 13.25 84.6875 13.25 83.6875 15.25 C80.97303021 15.56241455 78.34840639 15.76336592 75.625 15.875 C74.86638672 15.91367188 74.10777344 15.95234375 73.32617188 15.9921875 C71.44702805 16.08673562 69.56729664 16.16946756 67.6875 16.25 C67.50574219 17.26578125 67.32398438 18.2815625 67.13671875 19.328125 C63.13845586 41.34808828 63.13845586 41.34808828 60.6875 46.25 C53.0975 46.25 45.5075 46.25 37.6875 46.25 C39.6875 36.25 41.6875 26.25 43.6875 16.25 C39.3975 16.25 35.1075 16.25 30.6875 16.25 C30.3471875 18.725 30.3471875 18.725 30 21.25 C28.35872087 30.02971919 24.14356745 35.80720675 17.29296875 41.484375 C9.00000954 47.10419144 0.21827875 47.5962715 -9.5 47.6875 C-10.87128052 47.70296875 -10.87128052 47.70296875 -12.27026367 47.71875 C-20.19626084 47.61593552 -28.91516654 46.29032333 -35.3125 41.25 C-38.89441294 36.73944297 -38.9485135 33.38793926 -40.3125 27.25 C-41.6325 33.52 -42.9525 39.79 -44.3125 46.25 C-48.17049011 46.49394785 -52.01301442 46.67161691 -55.875 46.8125 C-56.96103516 46.88791016 -58.04707031 46.96332031 -59.16601562 47.04101562 C-67.12151001 47.25864313 -67.12151001 47.25864313 -70.51782227 44.38232422 C-72.30749388 42.08393886 -73.82945727 39.75487751 -75.3125 37.25 C-76.02019531 36.321875 -76.72789062 35.39375 -77.45703125 34.4375 C-78.58384351 32.95971343 -79.70879804 31.48050876 -80.83203125 30 C-82.21149551 28.13633088 -82.21149551 28.13633088 -84.3125 27.25 C-85.6325 33.52 -86.9525 39.79 -88.3125 46.25 C-95.2425 46.25 -102.1725 46.25 -109.3125 46.25 C-107.83067893 37.5001994 -106.33357855 28.9034889 -104.07421875 20.3203125 C-102.59220127 14.34664204 -101.4764051 8.29240096 -100.3125 2.25 C-96.56477692 1.93679615 -92.815291 1.68185736 -89.0625 1.4375 C-87.99902344 1.34791016 -86.93554688 1.25832031 -85.83984375 1.16601562 C-77.95944765 0.69517435 -77.95944765 0.69517435 -74.8984375 3.3203125 C-74.11339844 4.77050781 -74.11339844 4.77050781 -73.3125 6.25 C-72.49423104 7.35059862 -71.65703101 8.43729241 -70.8046875 9.51171875 C-69.48397992 11.23895044 -68.16479997 12.96731447 -66.84765625 14.69726562 C-65.08719543 16.99756564 -63.36330723 19.19919277 -61.3125 21.25 C-58.54785739 17.10303609 -58.22132988 12.70826571 -57.45703125 7.87890625 C-57.13610334 5.99129798 -56.730511 4.11850917 -56.3125 2.25 C-54.015963 1.1017315 -52.72936833 1.13438825 -50.1796875 1.15234375 C-49.37402344 1.15556641 -48.56835938 1.15878906 -47.73828125 1.16210938 C-46.89652344 1.17048828 -46.05476563 1.17886719 -45.1875 1.1875 C-44.33800781 1.19201172 -43.48851562 1.19652344 -42.61328125 1.20117188 C-40.51299091 1.21297126 -38.4127367 1.23090694 -36.3125 1.25 C-35.07641871 3.72216257 -35.39739554 4.69220669 -35.87109375 7.3828125 C-36.00966797 8.18847656 -36.14824219 8.99414062 -36.29101562 9.82421875 C-36.44248047 10.66597656 -36.59394531 11.50773437 -36.75 12.375 C-36.97139648 13.64923828 -36.97139648 13.64923828 -37.19726562 14.94921875 C-37.56321842 17.05049611 -37.93711468 19.15038721 -38.3125 21.25 C-38.07088135 20.72180664 -37.8292627 20.19361328 -37.58032227 19.64941406 C-33.6272566 11.33017642 -28.31104848 6.08287507 -19.5625 2.8125 C-12.9525231 0.65749291 -6.91328066 0.04303988 0 0 Z M-14.125 20.125 C-15.5452638 22.6665247 -16.2410325 24.31983244 -16.3125 27.25 C-14.35063932 30.70287479 -13.15261521 32.0049664 -9.3125 33.125 C-4.33701052 33.33231206 -1.41538008 32.09045544 2.6875 29.25 C5.05851016 26.87898984 5.63204718 25.58271693 6.1875 22.25 C5.93367778 19.11559748 5.93367778 19.11559748 3.625 16.875 C-2.75359243 13.34641696 -9.14469201 14.97295725 -14.125 20.125 Z " fill="#5AA5FA" transform="translate(269.3125,105.75)"/>
<path d="M0 0 C0.83080078 -0.00612305 1.66160156 -0.01224609 2.51757812 -0.01855469 C9.18635071 0.11630154 15.72243198 1.22310778 21.1875 5.25 C23.76243247 8.81529112 26.07725807 12.43488704 25.5 16.9375 C25.273125 17.453125 25.04625 17.96875 24.8125 18.5 C20.8525 18.995 20.8525 18.995 16.8125 19.5 C17.59625 20.056875 18.38 20.61375 19.1875 21.1875 C22.06011657 23.71813841 23.06666647 24.77083235 23.8125 28.5 C23.31778244 34.04285592 22.08619535 38.74748701 17.8125 42.5 C9.95904898 47.09959374 3.18577804 48.24082983 -5.8125 48 C-6.87984375 48.00257813 -7.9471875 48.00515625 -9.046875 48.0078125 C-16.63425939 47.91460139 -24.56557696 47.45729255 -30.1875 41.8125 C-30.8475 41.049375 -31.5075 40.28625 -32.1875 39.5 C-32.5175 39.5 -32.8475 39.5 -33.1875 39.5 C-34.1775 41.81 -35.1675 44.12 -36.1875 46.5 C-53.3475 46.83 -70.5075 47.16 -88.1875 47.5 C-86.73036097 38.75716583 -85.13836491 30.1509841 -83.21069336 21.51489258 C-82.74415016 19.41112147 -82.29308987 17.30435383 -81.84179688 15.19726562 C-81.54261162 13.84874834 -81.24251567 12.5004327 -80.94140625 11.15234375 C-80.67658447 9.94570068 -80.4117627 8.73905762 -80.13891602 7.49584961 C-79.16440855 4.4272889 -78.68230944 3.40951447 -76.1875 1.5 C-73.96650696 1.13923645 -73.96650696 1.13923645 -71.34887695 1.15942383 C-70.3680867 1.15965042 -69.38729645 1.15987701 -68.37678528 1.16011047 C-67.32045395 1.17559433 -66.26412262 1.19107819 -65.17578125 1.20703125 C-64.09241989 1.21127609 -63.00905853 1.21552094 -61.89286804 1.21989441 C-58.42832723 1.23670431 -54.96436538 1.27436152 -51.5 1.3125 C-49.15300318 1.32754381 -46.80599726 1.34123274 -44.45898438 1.35351562 C-38.70162495 1.38661539 -32.94460383 1.43683795 -27.1875 1.5 C-27.7256244 6.70186922 -28.48869563 10.40358688 -30.1875 15.5 C-39.4275 15.5 -48.6675 15.5 -58.1875 15.5 C-58.5175 16.82 -58.8475 18.14 -59.1875 19.5 C-58.44064941 19.46447021 -57.69379883 19.42894043 -56.92431641 19.39233398 C-53.55394465 19.23512695 -50.1832569 19.08620986 -46.8125 18.9375 C-45.636875 18.88142578 -44.46125 18.82535156 -43.25 18.76757812 C-42.12851562 18.71923828 -41.00703125 18.67089844 -39.8515625 18.62109375 C-38.81467285 18.5739624 -37.7777832 18.52683105 -36.70947266 18.47827148 C-34.1875 18.5 -34.1875 18.5 -32.1875 19.5 C-33.1775 23.13 -34.1675 26.76 -35.1875 30.5 C-43.7675 30.5 -52.3475 30.5 -61.1875 30.5 C-61.1875 31.49 -61.1875 32.48 -61.1875 33.5 C-51.9475 33.5 -42.7075 33.5 -33.1875 33.5 C-32.8575 32.18 -32.5275 30.86 -32.1875 29.5 C-28.8875 29.17 -25.5875 28.84 -22.1875 28.5 C-23.156875 27.79875 -24.12625 27.0975 -25.125 26.375 C-27.41864003 24.43464576 -28.15493215 23.58620902 -29.25 20.6875 C-29.14935708 15.55471105 -27.77657109 11.3269147 -24.38671875 7.4296875 C-17.31873503 1.22793979 -9.08009367 0.03696559 0 0 Z M-6.1875 13.5 C-6.1875 14.82 -6.1875 16.14 -6.1875 17.5 C-2.20553543 18.55404945 0.79445309 18.34098656 4.8125 17.5 C4.1525 16.18 3.4925 14.86 2.8125 13.5 C-0.1575 13.5 -3.1275 13.5 -6.1875 13.5 Z M5.8125 18.5 C5.8125 18.83 5.8125 19.16 5.8125 19.5 C8.1225 19.5 10.4325 19.5 12.8125 19.5 C12.8125 19.17 12.8125 18.84 12.8125 18.5 C10.5025 18.5 8.1925 18.5 5.8125 18.5 Z M-12.1875 30.5 C-11.8575 31.82 -11.5275 33.14 -11.1875 34.5 C-5.12699386 35.5812391 -5.12699386 35.5812391 0.8125 34.5 C0.8125 33.51 0.8125 32.52 0.8125 31.5 C-0.6452353 31.164061 -2.10371106 30.83133376 -3.5625 30.5 C-4.37460937 30.314375 -5.18671875 30.12875 -6.0234375 29.9375 C-8.67472468 29.4014997 -9.74556059 29.2790303 -12.1875 30.5 Z " fill="#59A5FC" transform="translate(435.1875,105.5)"/>
<path d="M0 0 C1.32 -1.65 2.64 -3.3 4 -5 C7.65316671 -3.75023244 8.78065836 -3.32901247 11 0 C10.46375 0.7425 9.9275 1.485 9.375 2.25 C8.92125 3.1575 8.4675 4.065 8 5 C9.114422 7.96388829 10.84697962 10.1042039 12.875 12.5 C20.69326491 22.98184045 21.30940689 35.393019 20 48 C17.92287177 58.42251323 11.44184712 67.72874739 3.3203125 74.46484375 C-4.89138842 79.8978378 -13.63456824 82.24913868 -23.3125 82.375 C-24.20662598 82.38700439 -25.10075195 82.39900879 -26.02197266 82.41137695 C-33.32966659 82.34522916 -38.47041474 80.6328428 -45.1875 77.78125 C-47.91485762 76.73275796 -47.91485762 76.73275796 -50.1875 77.78125 C-52.10563236 79.27150712 -52.10563236 79.27150712 -54 82 C-55.65 80.68 -57.3 79.36 -59 78 C-58.690625 77.401875 -58.38125 76.80375 -58.0625 76.1875 C-56.89790296 73.91043228 -56.89790296 73.91043228 -56 71 C-57.3443135 68.71288257 -58.7278041 66.59983132 -60.25 64.4375 C-68.09567426 52.64412716 -69.97771859 40.63490186 -67.37890625 26.66015625 C-64.16630932 15.79443954 -58.09311615 6.42253191 -48.4609375 0.33203125 C-33.96203666 -7.51578651 -14.62005221 -7.65970845 0 0 Z M-50.8203125 13.81640625 C-52.41735897 15.80268264 -53.72730286 17.79266589 -55 20 C-55.4125 20.70511719 -55.825 21.41023438 -56.25 22.13671875 C-60.38129556 30.58579196 -60.39871872 41.05357551 -58.26953125 50.10546875 C-56.37898006 55.20609869 -53.7262798 59.06670466 -50 63 C-47.60537064 62.04214826 -46.23692918 61.33184576 -44.72265625 59.2109375 C-43.73620236 56.98314208 -43.73620236 56.98314208 -44.86328125 54.7734375 C-45.34152344 53.98195312 -45.81976563 53.19046875 -46.3125 52.375 C-50.38096164 44.79387749 -50.75089508 37.71796779 -48.7890625 29.38671875 C-46.58618468 22.72355861 -42.71344484 17.96443112 -37 14 C-31.14174704 11.33715775 -23.97393777 10.14213334 -17.75 11.9375 C-16.8425 12.288125 -15.935 12.63875 -15 13 C-11.87237733 13.58442963 -11.87237733 13.58442963 -9 13 C-7.0645852 10.60943058 -7.0645852 10.60943058 -6 8 C-20.87277479 0.0653931 -38.38862546 1.41139665 -50.8203125 13.81640625 Z M0 13 C-1.38232443 14.62626404 -2.71937515 16.2925002 -4 18 C-2.90565558 20.77795122 -1.77441388 23.45117224 -0.4375 26.125 C2.75231724 33.61130577 2.89975421 42.42017738 0 50 C-3.03689946 56.45473404 -6.72448829 60.29139615 -13.296875 63.125 C-22.10257234 65.97539914 -29.36018727 64.95792428 -38 62 C-40.12802546 64.30566683 -40.12802546 64.30566683 -42 67 C-41.67 67.99 -41.34 68.98 -41 70 C-32.34239719 74.3288014 -23.47277971 75.37997706 -14.0625 72.9375 C-5.38390242 69.9990772 2.16831963 65.39757647 6.8515625 57.37109375 C11.91027683 46.92674138 12.85154716 35.43753 9.05859375 24.3671875 C7.22623405 20.26973371 4.94637394 16.39776828 2 13 C1.34 13 0.68 13 0 13 Z M-37.75 25.3125 C-41.53185664 29.82971765 -42.39388423 34.09764428 -42.26953125 39.96484375 C-41.82469459 43.32368291 -40.50932877 45.98134247 -39 49 C-35.87925784 47.65466534 -34.19064081 46.32489343 -32.1953125 43.5859375 C-31.69386719 42.90660156 -31.19242188 42.22726563 -30.67578125 41.52734375 C-30.16402344 40.81707031 -29.65226562 40.10679688 -29.125 39.375 C-28.10677083 37.98697917 -27.08854167 36.59895833 -26.0703125 35.2109375 C-25.57047852 34.5209668 -25.07064453 33.83099609 -24.55566406 33.12011719 C-22.45480346 30.25698575 -20.27986541 27.45199561 -18.09716797 24.65087891 C-16.81549804 23.05275418 -16.81549804 23.05275418 -17 21 C-24.21305964 17.39347018 -32.06568151 20.5325049 -37.75 25.3125 Z M-11.7265625 28.578125 C-14.46951627 31.50017197 -16.9208988 34.58468783 -19.375 37.75 C-19.85815674 38.37108643 -20.34131348 38.99217285 -20.83911133 39.63208008 C-21.794323 40.86190507 -22.74822199 42.09275097 -23.70068359 43.32470703 C-24.80862839 44.75325216 -25.92848583 46.17254497 -27.05078125 47.58984375 C-27.59089844 48.28207031 -28.13101563 48.97429688 -28.6875 49.6875 C-29.37392578 50.55955078 -29.37392578 50.55955078 -30.07421875 51.44921875 C-31.25629306 53.12830142 -31.25629306 53.12830142 -31 56 C-26.94835072 58.02582464 -22.00938416 57.64750733 -17.76953125 56.28125 C-13.45295419 54.27278638 -10.61577907 52.08061535 -8 48 C-6.8946127 44.6838381 -6.83246358 42.11463365 -6.8125 38.625 C-6.79123047 36.94277344 -6.79123047 36.94277344 -6.76953125 35.2265625 C-6.99634632 32.05115158 -7.64609332 29.85765282 -9 27 C-10.2668332 26.88755579 -10.2668332 26.88755579 -11.7265625 28.578125 Z " fill="#FBFBFB" transform="translate(250,11)"/>
<path d="M0 0 C0.83635986 0.00491455 1.67271973 0.0098291 2.53442383 0.01489258 C12.99666806 0.21344612 21.86647996 2.8199357 29.5703125 10.16796875 C33.35555 14.26204362 35.76595531 18.06343264 37.625 23.3125 C34.8125 24.875 34.8125 24.875 31.625 26.3125 C27.98672454 25.09974151 27.93684282 24.37845067 26.1875 21.125 C22.07427919 14.64512702 15.39834258 11.51315672 8.078125 9.671875 C-3.39547652 7.99102892 -13.36435687 10.29843916 -23.11328125 16.52734375 C-30.05288012 22.00471281 -32.94494974 29.80311002 -34.375 38.3125 C-35.52560916 48.08557536 -32.98604566 56.99370328 -28.6875 65.75 C-22.18680411 72.95347382 -12.92788548 77.60130551 -3.30078125 78.5078125 C6.3235268 78.97275492 15.21395877 76.46896706 22.625 70.3125 C23.285 70.3125 23.945 70.3125 24.625 70.3125 C24.893125 69.755625 25.16125 69.19875 25.4375 68.625 C26.72622647 66.11537477 28.15426478 63.71915764 29.625 61.3125 C33.0625 62.125 33.0625 62.125 36.625 63.3125 C37.625 66.3125 37.625 66.3125 36.65625 68.36328125 C29.71915101 78.6096596 21.73275441 84.4267776 9.625 87.3125 C-4.1311844 88.78702305 -16.23962496 87.51462854 -27.8125 79.4375 C-36.35403195 72.36740843 -43.06424664 62.55265895 -44.375 51.3125 C-45.23418295 39.01957467 -44.44091716 27.34039701 -36.375 17.3125 C-35.74722656 16.51972656 -35.11945313 15.72695313 -34.47265625 14.91015625 C-25.21275489 3.8275678 -14.20080618 -0.09872601 0 0 Z " fill="#FBFBFB" transform="translate(137.375,5.6875)"/>
<path d="M0 0 C3.22799001 2.48599623 5.00700695 4.96495626 6.98828125 8.53125 C6.65828125 9.52125 6.32828125 10.51125 5.98828125 11.53125 C2.42578125 12.71875 2.42578125 12.71875 -1.01171875 13.53125 C-1.87796875 12.355625 -1.87796875 12.355625 -2.76171875 11.15625 C-5.51002563 7.94989197 -7.37118862 6.74730757 -11.5625 6.1953125 C-17.99369958 6.10434787 -21.82325753 6.63990409 -27.01171875 10.53125 C-31.37701177 15.33307232 -31.36418752 20.21382499 -31.28125 26.44921875 C-30.89529814 30.86249438 -29.91306416 34.14091379 -27.01171875 37.53125 C-22.83653707 40.78271892 -18.31222708 42.20736408 -13.03515625 41.92578125 C-9.35933106 41.2090663 -6.07105165 39.67852825 -3.01171875 37.53125 C-2.35171875 36.54125 -1.69171875 35.55125 -1.01171875 34.53125 C2.3629084 35.07848683 4.07063125 35.58615 6.98828125 37.53125 C6.43282672 41.23972582 5.05616898 42.75151123 2.23828125 45.15625 C1.5628125 45.74664062 0.88734375 46.33703125 0.19140625 46.9453125 C-6.48877181 51.75409316 -14.14419348 51.29940509 -22.01171875 50.53125 C-29.47665116 48.41109086 -34.68218989 43.87362999 -39.01171875 37.53125 C-42.09665879 31.36136993 -42.81761993 23.22976078 -41.35546875 16.51953125 C-38.58801875 8.33993106 -34.74098851 2.76047308 -27.01171875 -1.46875 C-17.45540559 -5.47677043 -8.95310588 -5.47045901 0 0 Z " fill="#FBFBFB" transform="translate(152.01171875,25.46875)"/>
<path d="M0 0 C0 12.87 0 25.74 0 39 C-2.97 39 -5.94 39 -9 39 C-9 29.1 -9 19.2 -9 9 C-15.93 9 -22.86 9 -30 9 C-29.98839844 11.08183594 -29.97679687 13.16367188 -29.96484375 15.30859375 C-29.95789265 17.31746298 -29.95097611 19.32633251 -29.94506836 21.33520508 C-29.9400292 22.73495228 -29.93319784 24.1346942 -29.92456055 25.53442383 C-29.9124768 27.54245777 -29.90730193 29.55052957 -29.90234375 31.55859375 C-29.89710693 32.76829834 -29.89187012 33.97800293 -29.88647461 35.22436523 C-30 38 -30 38 -31 39 C-33.67058851 39.14115161 -36.32432238 39.04247107 -39 39 C-39.83734786 32.46071197 -40.15377383 26.08920816 -40.125 19.5 C-40.12886719 18.61441406 -40.13273437 17.72882813 -40.13671875 16.81640625 C-40.12837546 11.13462445 -39.72169044 5.63605867 -39 0 C-34.73188184 -0.169023 -30.46354806 -0.32941546 -26.19482422 -0.48217773 C-24.74584456 -0.53520491 -23.29694581 -0.59049773 -21.84814453 -0.64819336 C-19.75310722 -0.73121517 -17.6579041 -0.80580097 -15.5625 -0.87890625 C-13.67724609 -0.94960327 -13.67724609 -0.94960327 -11.75390625 -1.02172852 C-8 -1 -8 -1 0 0 Z " fill="#FDFDFD" transform="translate(66,53)"/>
<path d="M0 0 C6.15234375 -0.09765625 6.15234375 -0.09765625 8 0 C9.83219646 1.83219646 9.23901328 4.75713741 9.31640625 7.22265625 C9.35830078 8.48271484 9.40019531 9.74277344 9.44335938 11.04101562 C9.48317596 12.38150736 9.52288814 13.7220022 9.5625 15.0625 C9.60568042 16.40691523 9.64929456 17.7513166 9.69335938 19.09570312 C9.79985283 22.39700013 9.9004675 25.69848579 10 29 C16.6 29 23.2 29 30 29 C29.98839844 26.99035156 29.97679688 24.98070312 29.96484375 22.91015625 C29.9578926 20.97078576 29.95097604 19.03141497 29.94506836 17.09204102 C29.94002943 15.74079614 29.93319823 14.38955674 29.92456055 13.03833008 C29.91247581 11.09979566 29.90730172 9.161222 29.90234375 7.22265625 C29.89710693 6.05484619 29.89187012 4.88703613 29.88647461 3.68383789 C30 1 30 1 31 0 C33.64 0 36.28 0 39 0 C39 12.87 39 25.74 39 39 C26.13 39 13.26 39 0 39 C-0.80311419 34.18131487 -1.06712903 30.00524775 -0.87890625 25.1953125 C-0.85529526 24.4713327 -0.83168427 23.74735291 -0.80735779 23.00143433 C-0.73132307 20.70905949 -0.64704376 18.41707519 -0.5625 16.125 C-0.50921886 14.56251855 -0.45647897 13.00001854 -0.40429688 11.4375 C-0.2757905 7.62475684 -0.13989371 3.81234164 0 0 Z " fill="#FCFCFC" transform="translate(27,7)"/>
<path d="M0 0 C6.15234375 -0.09765625 6.15234375 -0.09765625 8 0 C9.75182812 1.75182812 9.12610303 4.04645033 9.13552856 6.38059998 C9.13350433 7.15154495 9.1314801 7.92248993 9.12939453 8.71679688 C9.13114685 9.52488297 9.13289917 10.33296906 9.13470459 11.1655426 C9.13912376 13.8499666 9.13618489 16.53432528 9.1328125 19.21875 C9.13348552 21.07580579 9.13445553 22.9328615 9.13571167 24.78991699 C9.13718873 28.68726437 9.13503382 32.58458887 9.13037109 36.48193359 C9.1246738 41.489345 9.12795276 46.49670281 9.13394356 51.50411224 C9.13754895 55.34039721 9.13641069 59.17666937 9.13381577 63.01295471 C9.13314644 64.85982774 9.13397513 66.70670192 9.13629532 68.55357361 C9.13882149 71.13014832 9.13498177 73.70663501 9.12939453 76.28320312 C9.13141876 77.0541481 9.13344299 77.82509308 9.13552856 78.61940002 C9.11426255 83.88573745 9.11426255 83.88573745 8 85 C5.32941149 85.14115161 2.67567762 85.04247107 0 85 C-0.76437122 79.63258382 -1.12334178 74.44901692 -1.02172852 69.0234375 C-1.01212097 68.27124435 -1.00251343 67.51905121 -0.99261475 66.74406433 C-0.95995101 64.28760425 -0.91949747 61.83134075 -0.87890625 59.375 C-0.85457312 57.66008166 -0.83073122 55.94515629 -0.80735779 54.23022461 C-0.74483426 49.73887049 -0.6756795 45.24764252 -0.60510254 40.75640869 C-0.53413065 36.16448664 -0.46948698 31.57247588 -0.40429688 26.98046875 C-0.27569419 17.98688164 -0.14007973 8.99341517 0 0 Z " fill="#FBFBFA" transform="translate(10,7)"/>
<path d="M0 0 C2.64 0 5.28 0 8 0 C8 28.05 8 56.1 8 85 C5.36 85 2.72 85 0 85 C-1.75182812 83.24817188 -1.12610303 80.95354967 -1.13552856 78.61940002 C-1.13350433 77.84845505 -1.1314801 77.07751007 -1.12939453 76.28320312 C-1.13114685 75.47511703 -1.13289917 74.66703094 -1.13470459 73.8344574 C-1.13912376 71.1500334 -1.13618489 68.46567472 -1.1328125 65.78125 C-1.13348552 63.92419421 -1.13445553 62.0671385 -1.13571167 60.21008301 C-1.13718873 56.31273563 -1.13503382 52.41541113 -1.13037109 48.51806641 C-1.1246738 43.510655 -1.12795276 38.50329719 -1.13394356 33.49588776 C-1.13754895 29.65960279 -1.13641069 25.82333063 -1.13381577 21.98704529 C-1.13314644 20.14017226 -1.13397513 18.29329808 -1.13629532 16.44642639 C-1.13882149 13.86985168 -1.13498177 11.29336499 -1.12939453 8.71679688 C-1.13141876 7.9458519 -1.13344299 7.17490692 -1.13552856 6.38059998 C-1.11426255 1.11426255 -1.11426255 1.11426255 0 0 Z " fill="#FCFCFC" transform="translate(75,7)"/>
<path d="M0 0 C-0.99 3.63 -1.98 7.26 -3 11 C-11.58 11 -20.16 11 -29 11 C-29 11.99 -29 12.98 -29 14 C-19.76 14 -10.52 14 -1 14 C-1 13.01 -1 12.02 -1 11 C-0.34 11.33 0.32 11.66 1 12 C0.67 13.32 0.34 14.64 0 16 C0.66 16 1.32 16 2 16 C4 18 4 18 4.125 20.625 C4.08375 21.40875 4.0425 22.1925 4 23 C1 22 1 22 -1 19 C-1.99 21.64 -2.98 24.28 -4 27 C-21.16 27.33 -38.32 27.66 -56 28 C-56 27.34 -56 26.68 -56 26 C-30.755 25.505 -30.755 25.505 -5 25 C-4.67 22.36 -4.34 19.72 -4 17 C-12.91 16.67 -21.82 16.34 -31 16 C-31 10 -31 10 -30 9 C-28.07332493 8.91251793 -26.14348139 8.89302666 -24.21484375 8.90234375 C-23.04501953 8.90556641 -21.87519531 8.90878906 -20.66992188 8.91210938 C-19.43822266 8.92048828 -18.20652344 8.92886719 -16.9375 8.9375 C-15.08415039 8.94426758 -15.08415039 8.94426758 -13.19335938 8.95117188 C-10.12885883 8.96300392 -7.06445279 8.97948827 -4 9 C-3.67 6.69 -3.34 4.38 -3 2 C-3.62044189 2.01047363 -4.24088379 2.02094727 -4.88012695 2.03173828 C-7.69087677 2.07330886 -10.5015619 2.09932933 -13.3125 2.125 C-14.28896484 2.14175781 -15.26542969 2.15851563 -16.27148438 2.17578125 C-17.67817383 2.18544922 -17.67817383 2.18544922 -19.11328125 2.1953125 C-19.97735596 2.20578613 -20.84143066 2.21625977 -21.73168945 2.22705078 C-24 2 -24 2 -27 0 C-23.06290089 -0.19665429 -19.12531328 -0.38075477 -15.1875 -0.5625 C-14.06794922 -0.61857422 -12.94839844 -0.67464844 -11.79492188 -0.73242188 C-10.72177734 -0.78076172 -9.64863281 -0.82910156 -8.54296875 -0.87890625 C-7.0583313 -0.94960327 -7.0583313 -0.94960327 -5.54370117 -1.02172852 C-3 -1 -3 -1 0 0 Z " fill="#6AA7E7" transform="translate(403,125)"/>
<path d="M0 0 C0.88602402 0.00222061 1.77204803 0.00444122 2.68492126 0.00672913 C3.68588333 0.00680466 4.6868454 0.00688019 5.71813965 0.00695801 C6.80666733 0.01211929 7.89519501 0.01728058 9.01670837 0.02259827 C10.67928932 0.02472069 10.67928932 0.02472069 12.37545776 0.02688599 C15.93168281 0.03250418 19.48784596 0.04505977 23.04405212 0.05775452 C25.44834809 0.06276717 27.85264504 0.06733048 30.25694275 0.07142639 C36.16516716 0.08247952 42.07335522 0.09923535 47.98155212 0.12025452 C47.44342772 5.32212374 46.6803565 9.02384139 44.98155212 14.12025452 C35.74155212 14.12025452 26.50155212 14.12025452 16.98155212 14.12025452 C16.32155212 15.44025452 15.66155212 16.76025452 14.98155212 18.12025452 C14.35655212 16.24525452 14.35655212 16.24525452 13.98155212 14.12025452 C15.98155212 12.12025452 15.98155212 12.12025452 18.87071228 11.89320374 C20.07518005 11.90367737 21.27964783 11.914151 22.52061462 11.92494202 C24.47354431 11.93460999 24.47354431 11.93460999 26.46592712 11.94447327 C27.84613808 11.96118522 29.22634641 11.97811513 30.60655212 11.99525452 C31.99456664 12.00528446 33.38258802 12.01441029 34.77061462 12.02259827 C38.17443239 12.04623589 41.57790719 12.07918585 44.98155212 12.12025452 C44.96092712 10.84150452 44.94030212 9.56275452 44.91905212 8.24525452 C44.85655212 4.37025452 44.85655212 4.37025452 45.98155212 2.12025452 C30.80155212 2.12025452 15.62155212 2.12025452 -0.01844788 2.12025452 C-0.34844788 4.10025452 -0.67844788 6.08025452 -1.01844788 8.12025452 C-1.65150609 10.1311453 -2.30938849 12.13488824 -3.01844788 14.12025452 C-3.67844788 14.12025452 -4.33844788 14.12025452 -5.01844788 14.12025452 C-5.01844788 16.76025452 -5.01844788 19.40025452 -5.01844788 22.12025452 C-5.67844788 22.12025452 -6.33844788 22.12025452 -7.01844788 22.12025452 C-5.20091489 0.30985864 -5.20091489 0.30985864 0 0 Z " fill="#6EA6E7" transform="translate(360.01844787597656,106.87974548339844)"/>
<path d="M0 0 C3.28130664 1.35233767 4.62332778 2.47594051 6.125 5.6875 C6.43695313 6.33074219 6.74890625 6.97398438 7.0703125 7.63671875 C11.18485491 18.0959547 12.03349097 31.27452709 8.4375 42.0625 C4.19535434 51.66314543 -2.53597672 61.3451333 -12.5 65.4375 C-13.325 65.623125 -14.15 65.80875 -15 66 C-12.47211993 63.20127563 -10.79588866 61.54226981 -7 61 C-7 60.34 -7 59.68 -7 59 C-6.24976563 58.40960938 -5.49953125 57.81921875 -4.7265625 57.2109375 C2.60852835 51.2629985 6.08713749 41.77908621 7.6875 32.70703125 C8.71484086 20.52020032 5.79964348 10.65091759 0 0 Z " fill="#E9E9E9" transform="translate(260,23)"/>
<path d="M0 0 C-0.99 3.63 -1.98 7.26 -3 11 C-11.58 11 -20.16 11 -29 11 C-29 11.99 -29 12.98 -29 14 C-29.66 14 -30.32 14 -31 14 C-30.67 12.35 -30.34 10.7 -30 9 C-21.42 9 -12.84 9 -4 9 C-3.67 6.69 -3.34 4.38 -3 2 C-3.62044189 2.01047363 -4.24088379 2.02094727 -4.88012695 2.03173828 C-7.69087677 2.07330886 -10.5015619 2.09932933 -13.3125 2.125 C-14.28896484 2.14175781 -15.26542969 2.15851563 -16.27148438 2.17578125 C-17.20927734 2.18222656 -18.14707031 2.18867187 -19.11328125 2.1953125 C-19.97735596 2.20578613 -20.84143066 2.21625977 -21.73168945 2.22705078 C-24 2 -24 2 -27 0 C-23.06290089 -0.19665429 -19.12531328 -0.38075477 -15.1875 -0.5625 C-14.06794922 -0.61857422 -12.94839844 -0.67464844 -11.79492188 -0.73242188 C-10.72177734 -0.78076172 -9.64863281 -0.82910156 -8.54296875 -0.87890625 C-7.0583313 -0.94960327 -7.0583313 -0.94960327 -5.54370117 -1.02172852 C-3 -1 -3 -1 0 0 Z " fill="#699FDE" transform="translate(403,125)"/>
<path d="M0 0 C1.98 0 3.96 0 6 0 C1.10366857 5.32180969 -4.91894431 7.19937445 -12.03125 7.49609375 C-14.18758806 7.49740699 -16.34403296 7.47752094 -18.5 7.4375 C-19.57636719 7.44458984 -20.65273438 7.45167969 -21.76171875 7.45898438 C-28.1541952 7.40837403 -34.2201814 6.97057003 -40 4 C-40.33 3.34 -40.66 2.68 -41 2 C-38.69 2.33 -36.38 2.66 -34 3 C-34 3.66 -34 4.32 -34 5 C-30.06672048 4.93110195 -26.13437486 4.84312821 -22.2019043 4.73754883 C-20.2070937 4.68798681 -18.21192743 4.65348867 -16.21679688 4.61914062 C-14.96318359 4.58369141 -13.70957031 4.54824219 -12.41796875 4.51171875 C-11.26063232 4.48553467 -10.1032959 4.45935059 -8.91088867 4.43237305 C-5.79438191 3.96945822 -4.85453028 3.47751402 -3 1 C-2.01 1.66 -1.02 2.32 0 3 C0 2.01 0 1.02 0 0 Z " fill="#67A3E3" transform="translate(448,146)"/>
<path d="M0 0 C1.89213369 2.38573379 3.02391783 4.07175348 4 7 C3.5625 9.1875 3.5625 9.1875 3 11 C0.36 11.33 -2.28 11.66 -5 12 C-4.01 13.32 -3.02 14.64 -2 16 C-18.87608069 12.74927954 -18.87608069 12.74927954 -23 10 C-21.02 10 -19.04 10 -17 10 C-18.32 8.35 -19.64 6.7 -21 5 C-18.83125748 5.50603992 -17.00032373 5.99983813 -15 7 C-15 8.32 -15 9.64 -15 11 C-10.85906302 11.20970559 -10.85906302 11.20970559 -7 10 C-5.45976004 9.93049459 -3.91665012 9.91547643 -2.375 9.9375 C-1.14910156 9.95103516 -1.14910156 9.95103516 0.1015625 9.96484375 C1.04128906 9.98224609 1.04128906 9.98224609 2 10 C1.67 9.0925 1.34 8.185 1 7.25 C0 4 0 4 0 0 Z " fill="#61A5E5" transform="translate(457,113)"/>
<path d="M0 0 C-0.33 2.31 -0.66 4.62 -1 7 C-1.66 6.67 -2.32 6.34 -3 6 C-2.67 4.68 -2.34 3.36 -2 2 C-19.49 2 -36.98 2 -55 2 C-55.33 4.31 -55.66 6.62 -56 9 C-56.66 9 -57.32 9 -58 9 C-57.34 6.36 -56.68 3.72 -56 1 C-48.3461962 0.85732626 -40.69238711 0.71493898 -33.03857422 0.57275391 C-30.43310423 0.52431785 -27.82763548 0.47581542 -25.22216797 0.42724609 C-21.48405268 0.35757411 -17.74593307 0.28813828 -14.0078125 0.21875 C-12.83695099 0.19687622 -11.66608948 0.17500244 -10.45974731 0.15246582 C-9.37877777 0.13244507 -8.29780823 0.11242432 -7.18408203 0.09179688 C-6.22921906 0.07403198 -5.27435608 0.05626709 -4.29055786 0.03796387 C-2.86051233 0.01426219 -1.43024194 0 0 0 Z " fill="#6CA4E3" transform="translate(356,107)"/>
<path d="M0 0 C2.40385127 7.14335945 -0.78428335 16.03631911 -3 23 C-3.33 23 -3.66 23 -4 23 C-3.97679687 21.96359375 -3.95359375 20.9271875 -3.9296875 19.859375 C-3.91092333 18.48959056 -3.89272382 17.1197983 -3.875 15.75 C-3.85824219 15.06808594 -3.84148437 14.38617188 -3.82421875 13.68359375 C-3.78786518 9.9391765 -3.92055651 7.17647273 -6 4 C-4.7934375 3.566875 -4.7934375 3.566875 -3.5625 3.125 C-0.8673532 2.26737432 -0.8673532 2.26737432 0 0 Z " fill="#5DA4EE" transform="translate(335,122)"/>
<path d="M0 0 C1.18613892 0.00785522 1.18613892 0.00785522 2.39624023 0.01586914 C3.67724609 0.02070312 3.67724609 0.02070312 4.98413086 0.02563477 C5.88196289 0.03401367 6.77979492 0.04239258 7.70483398 0.05102539 C8.6065332 0.05553711 9.50823242 0.06004883 10.43725586 0.06469727 C12.67234712 0.07652315 14.90730835 0.09300319 17.14233398 0.11352539 C18.54975421 2.92836584 17.80885562 4.68288652 17.20483398 7.73852539 C17.01018555 8.74141602 16.81553711 9.74430664 16.61499023 10.77758789 C16.45901367 11.54844727 16.30303711 12.31930664 16.14233398 13.11352539 C15.81233398 13.11352539 15.48233398 13.11352539 15.14233398 13.11352539 C15.14233398 9.48352539 15.14233398 5.85352539 15.14233398 2.11352539 C9.86233398 2.11352539 4.58233398 2.11352539 -0.85766602 2.11352539 C-1.14641602 4.40290039 -1.43516602 6.69227539 -1.73266602 9.05102539 C-2.03096808 11.4161346 -2.38959957 13.77608245 -2.85766602 16.11352539 C-3.51766602 16.44352539 -4.17766602 16.77352539 -4.85766602 17.11352539 C-5.09499646 11.53625993 -4.43612633 6.48259478 -2.85766602 1.11352539 C-1.85766602 0.11352539 -1.85766602 0.11352539 0 0 Z " fill="#699FDD" transform="translate(215.857666015625,106.886474609375)"/>
<path d="M0 0 C0 1.32 0 2.64 0 4 C-0.99 3.67 -1.98 3.34 -3 3 C-2.67 2.34 -2.34 1.68 -2 1 C-11.08658103 0.60301345 -16.76106782 1.15317016 -24 7 C-23.39340776 4.2703349 -22.65445194 2.50083975 -20.40234375 0.77734375 C-13.80231221 -2.88350873 -6.83859147 -3.5295956 0 0 Z " fill="#E9E9E9" transform="translate(235,31)"/>
<path d="M0 0 C0.82564453 -0.01611328 1.65128906 -0.03222656 2.50195312 -0.04882812 C9.53145003 -0.05436752 14.87549782 1.35449855 20.8125 5.3125 C18.1725 5.9725 15.5325 6.6325 12.8125 7.3125 C12.4825 6.6525 12.1525 5.9925 11.8125 5.3125 C10.8225 4.9825 9.8325 4.6525 8.8125 4.3125 C8.8125 3.6525 8.8125 2.9925 8.8125 2.3125 C1.8825 2.3125 -5.0475 2.3125 -12.1875 2.3125 C-8.0755681 -0.42878793 -4.82938064 -0.01841869 0 0 Z " fill="#69A2E3" transform="translate(269.1875,105.6875)"/>
<path d="M0 0 C0.93134766 0.00902344 1.86269531 0.01804687 2.82226562 0.02734375 C5.1109436 0.05081737 7.39908672 0.08365271 9.6875 0.125 C10.0175 0.785 10.3475 1.445 10.6875 2.125 C7.51240018 3.18336661 5.04467617 3.32743789 1.70703125 3.44140625 C0.54365234 3.48330078 -0.61972656 3.52519531 -1.81835938 3.56835938 C-3.03330078 3.60767578 -4.24824219 3.64699219 -5.5 3.6875 C-6.72654297 3.73068359 -7.95308594 3.77386719 -9.21679688 3.81835938 C-12.24858381 3.9245309 -15.28045315 4.02657952 -18.3125 4.125 C-12.12586281 0.00057521 -7.25927293 -0.13338593 0 0 Z " fill="#6AA2E5" transform="translate(435.3125,105.875)"/>
<path d="M0 0 C0.99 0.33 1.98 0.66 3 1 C3 2.32 3 3.64 3 5 C5.64 5.66 8.28 6.32 11 7 C6.96395176 8.00901206 4.95682367 8.03221487 1 7 C0.34 6.01 -0.32 5.02 -1 4 C-4.05129723 3.48913139 -4.05129723 3.48913139 -7.5 3.4375 C-13.79219288 3.20780712 -13.79219288 3.20780712 -16 1 C-14.2709226 0.97274659 -12.54171824 0.95349013 -10.8125 0.9375 C-9.84957031 0.92589844 -8.88664062 0.91429687 -7.89453125 0.90234375 C-5.14423487 0.99513378 -2.67520409 1.37888315 0 2 C0 1.34 0 0.68 0 0 Z " fill="#649EDD" transform="translate(421,134)"/>
<path d="M0 0 C1.15957207 3.47871621 0.77456651 4.34219645 -0.4375 7.6875 C-0.72496094 8.49574219 -1.01242187 9.30398437 -1.30859375 10.13671875 C-1.53675781 10.75160156 -1.76492188 11.36648437 -2 12 C-2.66 12 -3.32 12 -4 12 C-4 14.64 -4 17.28 -4 20 C-4.66 20 -5.32 20 -6 20 C-5.37679879 13.56025419 -4.35991738 7.32427599 -3 1 C-2.01 0.67 -1.02 0.34 0 0 Z " fill="#61A1E7" transform="translate(359,109)"/>
<path d="M0 0 C0.33 0 0.66 0 1 0 C1.16435547 1.50240234 1.16435547 1.50240234 1.33203125 3.03515625 C2.43964037 12.85224617 2.43964037 12.85224617 6 22 C5.01 22 4.02 22 3 22 C0.26718764 14.78976738 -1.63477649 8.74427321 -1 1 C-0.67 0.67 -0.34 0.34 0 0 Z " fill="#F2F2F2" transform="translate(183,48)"/>
<path d="M0 0 C0.99 0.33 1.98 0.66 3 1 C-0.59509759 7.47117567 -0.59509759 7.47117567 -4.41796875 8.91015625 C-8.35746885 9.69572865 -11.97478168 10 -16 10 C-16 9.34 -16 8.68 -16 8 C-15.12988281 7.85304688 -15.12988281 7.85304688 -14.2421875 7.703125 C-8.9116106 6.68275054 -5.25206157 5.40164926 -1 2 C-0.67 1.34 -0.34 0.68 0 0 Z " fill="#F0F0F0" transform="translate(151,60)"/>
<path d="M0 0 C0.33 0 0.66 0 1 0 C1.59491613 7.37696005 0.38439927 12.8964547 -4 19 C-6.171875 20.28515625 -6.171875 20.28515625 -8 21 C-7.03067538 19.03971406 -6.05129825 17.09357923 -5 15.17578125 C-2.35163809 10.24113816 -0.96845828 5.50492075 0 0 Z " fill="#EFEFEF" transform="translate(251,49)"/>
<path d="M0 0 C5.61 0 11.22 0 17 0 C18.09658936 3.28976808 17.79953138 4.71303767 17 8 C16.34 8 15.68 8 15 8 C15 6.02 15 4.04 15 2 C12.87561661 1.91921359 10.7503677 1.86090859 8.625 1.8125 C7.44164062 1.77769531 6.25828125 1.74289063 5.0390625 1.70703125 C4.03617187 1.80371094 3.03328125 1.90039062 2 2 C1.01 3.485 1.01 3.485 0 5 C0 3.35 0 1.7 0 0 Z " fill="#649AD8" transform="translate(298,120)"/>
<path d="M0 0 C7.98185484 6.25604839 7.98185484 6.25604839 10 12 C4.98865315 10.23925651 2.92176342 8.38264513 0 4 C0 2.68 0 1.36 0 0 Z " fill="#6FADEE" transform="translate(231,138)"/>
<path d="M0 0 C2.16874252 0.50603992 3.99967627 0.99983813 6 2 C6 3.32 6 4.64 6 6 C7.65 6.33 9.3 6.66 11 7 C11 7.33 11 7.66 11 8 C6.07872966 8.16682272 2.49656104 8.24828052 -2 6 C-2 5.67 -2 5.34 -2 5 C-0.02 5 1.96 5 4 5 C2.68 3.35 1.36 1.7 0 0 Z " fill="#689CDE" transform="translate(436,118)"/>
<path d="M0 0 C0 0.99 0 1.98 0 3 C-3.9707594 6.96068133 -8.55694232 9.63923558 -14 11 C-14 10.34 -14 9.68 -14 9 C-12.087288 7.7599543 -10.11787422 6.60663133 -8.125 5.5 C-3.77382622 3.13228841 -3.77382622 3.13228841 0 0 Z " fill="#EBEBEB" transform="translate(253,73)"/>
<path d="M0 0 C0.99 0.33 1.98 0.66 3 1 C3 1.66 3 2.32 3 3 C3.66 3.33 4.32 3.66 5 4 C4.67 4.99 4.34 5.98 4 7 C1.9375 7.6875 1.9375 7.6875 0 8 C0 7.34 0 6.68 0 6 C-0.66 5.67 -1.32 5.34 -2 5 C-1.34 3.35 -0.68 1.7 0 0 Z " fill="#5EA2EE" transform="translate(426,119)"/>
<path d="M0 0 C2.86207152 1.28299758 5.0245088 2.530636 7 5 C7 5.99 7 6.98 7 8 C4.69 7.67 2.38 7.34 0 7 C0 4.69 0 2.38 0 0 Z " fill="#65A3EF" transform="translate(290,111)"/>
<path d="M0 0 C0.66 0.33 1.32 0.66 2 1 C-2.95 7.435 -2.95 7.435 -8 14 C-8.66 13.34 -9.32 12.68 -10 12 C-6.7 8.04 -3.4 4.08 0 0 Z " fill="#F2F2F2" transform="translate(236,40)"/>
<path d="M0 0 C0.99 0.495 0.99 0.495 2 1 C1.67 2.32 1.34 3.64 1 5 C1.66 5 2.32 5 3 5 C5 7 5 7 5.125 9.625 C5.08375 10.40875 5.0425 11.1925 5 12 C2 11 2 11 0.8125 9.375 C-0.27499354 6.19617272 -0.1282071 3.33338467 0 0 Z " fill="#67A2EB" transform="translate(402,136)"/>
<path d="M0 0 C1.65 1.32 3.3 2.64 5 4 C5.99 3.01 6.98 2.02 8 1 C8 3.31 8 5.62 8 8 C7.01 8 6.02 8 5 8 C5 7.34 5 6.68 5 6 C4.34 6 3.68 6 3 6 C0 2.53846154 0 2.53846154 0 0 Z " fill="#5D9CE4" transform="translate(203,123)"/>
<path d="M0 0 C0.99 0.66 1.98 1.32 3 2 C2.39671875 2.25394531 1.7934375 2.50789063 1.171875 2.76953125 C-4.75675636 5.29568376 -4.75675636 5.29568376 -10 9 C-9.34928072 6.07176325 -8.65065146 4.41562022 -6.0859375 2.77734375 C-4.07869072 1.78790585 -2.0657943 0.85994693 0 0 Z " fill="#F1F1F1" transform="translate(221,29)"/>
<path d="M0 0 C1.32 0.66 2.64 1.32 4 2 C4.63019694 10.19256018 4.63019694 10.19256018 2 13.5625 C1.34 14.036875 0.68 14.51125 0 15 C-0.66 14.67 -1.32 14.34 -2 14 C-1.34 13.29875 -0.68 12.5975 0 11.875 C2.33169207 8.52319265 2.52114798 6.99546788 2 3 C1.34 2.01 0.68 1.02 0 0 Z " fill="#649CD7" transform="translate(272,122)"/>
<path d="M0 0 C4.51674641 2.25837321 4.51674641 2.25837321 6.25 6 C6.75273437 7.051875 6.75273437 7.051875 7.265625 8.125 C8 10 8 10 8 12 C7.34 12 6.68 12 6 12 C4.02 8.04 2.04 4.08 0 0 Z " fill="#E6E6E6" transform="translate(260,23)"/>
<path d="M0 0 C1.54296875 1.1484375 1.54296875 1.1484375 3 3 C2.92578125 5.6640625 2.92578125 5.6640625 2.3125 8.625 C2.12300781 9.60726562 1.93351562 10.58953125 1.73828125 11.6015625 C1.49464844 12.39304688 1.25101562 13.18453125 1 14 C0.01 14.495 0.01 14.495 -1 15 C-0.9278125 14.25234375 -0.855625 13.5046875 -0.78125 12.734375 C-0.64203125 11.25710937 -0.64203125 11.25710937 -0.5 9.75 C-0.36078125 8.28820312 -0.36078125 8.28820312 -0.21875 6.796875 C-0.04199832 4.53697847 0 2.26679807 0 0 Z " fill="#6AA7E2" transform="translate(456,129)"/>
<path d="M0 0 C0.99 0.99 1.98 1.98 3 3 C4.98 2.34 6.96 1.68 9 1 C9 1.99 9 2.98 9 4 C6.69 4.66 4.38 5.32 2 6 C0 3 0 3 0 0 Z " fill="#F0F0F0" transform="translate(165,26)"/>
<path d="M0 0 C0.66 0.33 1.32 0.66 2 1 C0.73299277 1.9841125 -0.5387619 2.96211497 -1.8125 3.9375 C-2.87404297 4.75541016 -2.87404297 4.75541016 -3.95703125 5.58984375 C-6 7 -6 7 -9 8 C-9 7.34 -9 6.68 -9 6 C-7.03125 4.4921875 -7.03125 4.4921875 -4.5 2.875 C-3.6646875 2.33617187 -2.829375 1.79734375 -1.96875 1.2421875 C-1.3190625 0.83226562 -0.669375 0.42234375 0 0 Z " fill="#F0F0F0" transform="translate(204,10)"/>
<path d="M0 0 C-0.33 1.32 -0.66 2.64 -1 4 C-2.98 4 -4.96 4 -7 4 C-6.67 3.01 -6.34 2.02 -6 1 C-3.90006779 0.25486277 -2.22568901 0 0 0 Z " fill="#5CA6EE" transform="translate(269,137)"/>
<path d="M0 0 C0.66 0 1.32 0 2 0 C0.90931332 3.77545388 0.0916909 6.47043472 -3 9 C-2.5020163 5.26512223 -2.12508244 3.18762365 0 0 Z " fill="#F1F1F1" transform="translate(98,28)"/>
<path d="M0 0 C2.31 1.98 4.62 3.96 7 6 C6.01 6.33 5.02 6.66 4 7 C2.35 5.02 0.7 3.04 -1 1 C-0.67 0.67 -0.34 0.34 0 0 Z " fill="#EDEDED" transform="translate(163,13)"/>
<path d="M0 0 C0 0.66 0 1.32 0 2 C-5.41176471 6 -5.41176471 6 -8 6 C-6.72879117 2.18637351 -4.19078006 0 0 0 Z " fill="#F0F0F0" transform="translate(117,10)"/>
<path d="M0 0 C2.5 1.8125 2.5 1.8125 5 4 C5 4.99 5 5.98 5 7 C4.01 7 3.02 7 2 7 C0 4 0 4 0 0 Z " fill="#63A1E6" transform="translate(231,138)"/>
<path d="M0 0 C0.66 0 1.32 0 2 0 C3.31223496 3.93670488 2.24296256 6.12488144 1 10 C0.67 10 0.34 10 0 10 C0 6.7 0 3.4 0 0 Z " fill="#6DA7E6" transform="translate(331,135)"/>
</svg>
